<svg xmlns="http://www.w3.org/2000/svg" xmlns:xlink="http://www.w3.org/1999/xlink" width="1200" height="1200" viewBox="0 0 512 512" fill="none" class="h-full w-full" id="iconWithBackground"><rect id="r4" width="512" height="512" x="0" y="0" rx="256" fill="url(#linearGradient-iconWithBackground)" stroke="#000000" stroke-width="0" stroke-opacity="100%" paint-order="stroke"/><defs><linearGradient id="linearGradient-iconWithBackground" gradientUnits="userSpaceOnUse" gradientTransform="rotate(53)" style="transform-origin:center center"><stop stop-color="#000000"/><stop offset="1" stop-color="#000000"/></linearGradient><radialGradient id="glare" cx="0" cy="0" r="1" gradientUnits="userSpaceOnUse" gradientTransform="translate(256) rotate(90) scale(512)"><stop stop-color="white"/><stop offset="1" stop-color="white" stop-opacity="0"/></radialGradient><clipPath id="clip"><use xlink:href="#r4"/></clipPath></defs><svg xmlns="http://www.w3.org/2000/svg" width="400" height="400" viewBox="0 0 24 24" x="56" y="56"><path fill="#ffffff" d="M12.455 2.309L12 2.076l-.455.233a12.034 12.034 0 0 0-3.09 2.265A14.047 14.047 0 0 1 12 7.202a14.047 14.047 0 0 1 3.544-2.628a12.036 12.036 0 0 0-3.089-2.265m-1.756 6.425a11.978 11.978 0 0 0-6.518-3.536L3 4.98V13a9.003 9.003 0 0 0 5.697 8.374A13.987 13.987 0 0 1 8 17c0-3.092 1.002-5.95 2.7-8.266M21 4.981l-1.18.217C14.232 6.224 10 11.117 10 17c0 1.536.29 3.007.817 4.36l.24.615c.314.01.629.025.943.025a9 9 0 0 0 9-9z"/></svg></svg>